# xmcd
#
# Track frame offsets:
#	150
#	4893
#	19311
#	35351
#	50719
#	64627
#	79621
#	98062
#	112792
#	127362
#	142605
#	159055
#	174857
#
# Disc length: 2613 seconds
#
# Revision: 0
# Processed by: cddbd v1.5.2PL0 Copyright (c) Steve Scherf et al.
# Submitted via: dBpowerAMP V4.0
#
DISCID=960a330d
DTITLE=Koit Toome - Kaugele siit
DYEAR=2010
DGENRE=Pop
TTITLE0=Inrto
TTITLE1=1 minut
TTITLE2=Kaugele siit
TTITLE3=Nädalalõpp
TTITLE4=Põgenen
TTITLE5=Mr. DJ
TTITLE6=Vabana
TTITLE7=Mälestused
TTITLE8=Mahlaakas Unenägu
TTITLE9=Valgust täis
TTITLE10=Mustvalgelt
TTITLE11=Kaugele siit (akustiline versioon)
TTITLE12=Põgenen (I.M.T.B. Rmx)
EXTD=By Dandee
EXTT0=
EXTT1=
EXTT2=
EXTT3=
EXTT4=
EXTT5=
EXTT6=
EXTT7=
EXTT8=
EXTT9=
EXTT10=
EXTT11=
EXTT12=
PLAYORDER=
